<svg xmlns="http://www.w3.org/2000/svg" xmlns:xlink="http://www.w3.org/1999/xlink" version="1.1" width="500" height="500" viewBox="0 0 500 500" xml:space="preserve">
<defs>
</defs>
<style>
  path {
    stroke: black;
    fill: black;
  }
  @media (prefers-color-scheme: dark) {
    path {
      stroke: white;
      fill: white;
    }
  }
</style>
<g transform="matrix(1.26 0 0 1.26 250.19 250.19)" id="A74I4WzwNDdQFS7YBp8tv">
<path style="stroke-width: 2; stroke-dasharray: none; stroke-linecap: butt; stroke-dashoffset: 0; stroke-linejoin: miter; stroke-miterlimit: 4; fill: none; fill-rule: nonzero; opacity: 1;" vector-effect="non-scaling-stroke" transform=" translate(0, 0)" d="M -191.92308 -191.92308 L 191.92308 -191.92308 L 191.92308 191.92308 L -191.92308 191.92308 z" stroke-linecap="round"/>
</g>
<g transform="matrix(1 0 0 1 334.57 322.2)" id="Aws_DIGAQtHr0UvM29KKO">
<path style="stroke: none; stroke-width: 1; stroke-dasharray: none; stroke-linecap: butt; stroke-dashoffset: 0; stroke-linejoin: miter; stroke-miterlimit: 4; fill-rule: nonzero; opacity: 1;" vector-effect="non-scaling-stroke" transform=" translate(-334.57, -322.2)" d="M 196.752 170.118 L 196.752 161.198 Q 206.118 161.644 221.282 162.09 Q 236.446 162.536 251.164 162.536 L 251.164 162.536 Q 272.126 162.536 291.304 162.09 Q 310.482 161.644 318.51 161.644 L 318.51 161.644 Q 372.476 161.644 399.236 183.944 Q 425.996 206.244 425.996 239.248 L 425.996 239.248 Q 425.996 252.628 420.644 267.792 Q 415.292 282.956 402.135 296.336 Q 388.978 309.716 366.232 318.413 Q 343.486 327.11 308.698 327.11 L 308.698 327.11 L 265.882 327.11 L 265.882 318.19 L 304.238 318.19 Q 335.904 318.19 352.629 308.155 Q 369.354 298.12 375.375 281.395 Q 381.396 264.67 381.396 244.154 L 381.396 244.154 Q 381.396 208.92 364.671 189.519 Q 347.946 170.118 307.36 170.118 L 307.36 170.118 Q 286.844 170.118 280.6 177.7 Q 274.356 185.282 274.356 208.474 L 274.356 208.474 L 274.356 429.69 Q 274.356 445.746 277.032 453.774 Q 279.708 461.802 287.513 464.478 Q 295.318 467.154 310.482 468.046 L 310.482 468.046 L 310.482 476.966 Q 300.224 476.074 284.837 475.851 Q 269.45 475.628 253.84 475.628 L 253.84 475.628 Q 236.446 475.628 221.282 475.851 Q 206.118 476.074 196.752 476.966 L 196.752 476.966 L 196.752 468.046 Q 211.916 467.154 219.721 464.478 Q 227.526 461.802 230.202 453.774 Q 232.878 445.746 232.878 429.69 L 232.878 429.69 L 232.878 208.474 Q 232.878 191.972 230.202 184.167 Q 227.526 176.362 219.721 173.463 Q 211.916 170.564 196.752 170.118 L 196.752 170.118 Z M 268.558 327.11 L 267.666 319.528 Q 291.75 320.42 305.576 321.535 Q 319.402 322.65 328.099 323.542 Q 336.796 324.434 344.824 325.772 L 344.824 325.772 Q 374.706 330.678 387.863 343.835 Q 401.02 356.992 407.264 384.644 L 407.264 384.644 L 418.414 430.136 Q 422.874 449.76 427.557 458.457 Q 432.24 467.154 442.052 466.708 L 442.052 466.708 Q 449.634 466.262 454.763 461.802 Q 459.892 457.342 465.69 449.76 L 465.69 449.76 L 472.38 454.666 Q 463.014 468.492 452.979 475.851 Q 442.944 483.21 424.658 483.21 L 424.658 483.21 Q 408.156 483.21 395.668 473.398 Q 383.18 463.586 376.936 435.042 L 376.936 435.042 L 367.124 390.442 Q 363.11 371.264 357.981 357.215 Q 352.852 343.166 343.709 335.138 Q 334.566 327.11 316.726 327.11 L 316.726 327.11 L 268.558 327.11 Z" stroke-linecap="round"/>
</g>
<g transform="matrix(1 0 0 1 142.58 176.75)" id="dnpbepTTXSzeiwDDm3Agz">
<path style="stroke: none; stroke-width: 1; stroke-dasharray: none; stroke-linecap: butt; stroke-dashoffset: 0; stroke-linejoin: miter; stroke-miterlimit: 4; fill-rule: nonzero; opacity: 1;" vector-effect="non-scaling-stroke" transform=" translate(-142.58, -176.75)" d="M 140.631 23.469 L 140.631 23.469 L 140.631 32.129 Q 125.909 32.562 118.331 35.376 Q 110.754 38.191 108.156 45.768 Q 105.558 53.346 105.558 69.367 L 105.558 69.367 L 105.558 284.135 Q 105.558 299.723 108.156 307.517 Q 110.754 315.311 118.331 317.692 Q 125.909 320.074 140.631 320.074 L 140.631 320.074 L 172.24 320.074 Q 199.519 320.074 213.591 312.28 Q 227.664 304.486 233.942 286.733 Q 240.221 268.98 243.252 239.103 L 243.252 239.103 L 253.211 239.103 Q 251.912 252.526 251.912 274.609 L 251.912 274.609 Q 251.912 282.836 252.561 298.207 Q 253.211 313.579 254.943 330.033 L 254.943 330.033 Q 232.86 329.167 205.148 328.95 Q 177.436 328.734 155.786 328.734 L 155.786 328.734 Q 142.796 328.734 121.362 328.734 Q 99.929 328.734 75.681 328.95 Q 51.433 329.167 30.216 330.033 L 30.216 330.033 L 30.216 321.373 Q 44.938 320.507 52.515 317.909 Q 60.093 315.311 62.691 307.517 Q 65.289 299.723 65.289 284.135 L 65.289 284.135 L 65.289 69.367 Q 65.289 53.346 62.691 45.768 Q 60.093 38.191 52.515 35.376 Q 44.938 32.562 30.216 32.129 L 30.216 32.129 L 30.216 23.469 Q 39.309 23.902 54.031 24.335 Q 68.753 24.768 85.64 24.768 L 85.64 24.768 Q 100.795 24.768 115.733 24.335 Q 130.672 23.902 140.631 23.469 Z" stroke-linecap="round"/>
</g>
</svg>